<svg xmlns="http://www.w3.org/2000/svg" width="71" height="71" viewBox="0 0 71 71">
  <metadata><?xpacket begin="﻿" id="W5M0MpCehiHzreSzNTczkc9d"?>
<x:xmpmeta xmlns:x="adobe:ns:meta/" x:xmptk="Adobe XMP Core 5.6-c138 79.159824, 2016/09/14-01:09:01        ">
   <rdf:RDF xmlns:rdf="http://www.w3.org/1999/02/22-rdf-syntax-ns#">
      <rdf:Description rdf:about=""/>
   </rdf:RDF>
</x:xmpmeta>
                                                                                                    
                                                                                                    
                                                                                                    
                                                                                                    
                                                                                                    
                                                                                                    
                                                                                                    
                                                                                                    
                                                                                                    
                                                                                                    
                                                                                                    
                                                                                                    
                                                                                                    
                                                                                                    
                                                                                                    
                                                                                                    
                                                                                                    
                                                                                                    
                                                                                                    
                                                                                                    
                           
<?xpacket end="w"?></metadata>
<defs>
    <style>
      .cls-1 {
        fill: #fff;
        fill-rule: evenodd;
      }
    </style>
  </defs>
  <path class="cls-1" d="M512.5,1517a35.5,35.5,0,1,1-35.5,35.5A35.5,35.5,0,0,1,512.5,1517Zm18.817,25.67h-20.5a0.644,0.644,0,0,0-.684.68v25.97a0.644,0.644,0,0,0,.684.68h20.5a0.643,0.643,0,0,0,.683-0.68v-25.97A0.643,0.643,0,0,0,531.317,1542.67Zm-0.684,1.36v4.1H511.5v-1.36h8.2v-1.37h-8.2v-1.37h19.133Zm-19.133,24.6V1549.5h19.133v19.13H511.5Zm3.417-17.76h2.05v1.36h-2.05v-1.36Zm3.416,0h2.05v1.36h-2.05v-1.36Zm3.417,0h2.05v1.36h-2.05v-1.36Zm3.417,0h2.05v1.36h-2.05v-1.36Zm-11.617,3.41h2.733v1.37H513.55v-1.37Zm4.1,0h2.733v1.37H517.65v-1.37Zm4.1,0h2.733v1.37H521.75v-1.37Zm4.1,0h2.733v1.37H525.85v-1.37Zm-12.3,2.74h2.733v1.36H513.55v-1.36Zm4.1,0h2.733v1.36H517.65v-1.36Zm4.1,0h2.733v1.36H521.75v-1.36Zm4.1,0h2.733v1.36H525.85v-1.36Zm-12.3,2.73h2.733v1.37H513.55v-1.37Zm4.1,0h2.733v1.37H517.65v-1.37Zm4.1,0h2.733v1.37H521.75v-1.37Zm4.1,0h2.733v1.37H525.85v-1.37Zm-12.3,2.73h2.733v1.37H513.55v-1.37Zm4.1,0h2.733v1.37H517.65v-1.37Zm4.1,0h2.733v1.37H521.75v-1.37Zm4.1,0h2.733v1.37H525.85v-1.37Zm-12.3,2.74h2.733v1.36H513.55v-1.36Zm4.1,0h2.733v1.36H517.65v-1.36Zm4.1,0h2.733v1.36H521.75v-1.36Zm4.1,0h2.733v1.36H525.85v-1.36Zm-33.483-26.65h7.516a0.651,0.651,0,0,0,.684-0.69v-7.51H523.8v9.56h1.367v-10.25a0.644,0.644,0,0,0-.684-0.68h-24.6a0.248,0.248,0,0,0-.2.07H499.61a2.327,2.327,0,0,1-.205.13l-8.2,8.21c-0.068.06-.068,0.13-0.137,0.2v0.07c0,0.07-.068.13-0.068,0.2h0v7.52h1.367v-6.83Zm6.833-1.37h-5.877l2.939-2.94,2.938-2.94v5.88h0Zm8.883,21.18h-7.516v-9.56a0.651,0.651,0,0,0-.684-0.69h-8.2a0.651,0.651,0,0,0-.683.69v20.5a0.643,0.643,0,0,0,.683.68h16.4a0.644,0.644,0,0,0,.684-0.68v-10.25A0.651,0.651,0,0,0,508.083,1558.38Zm-15.716,1.37H499.2v2.05h-6.833v-2.05Zm6.833-1.37h-6.833v-2.05H499.2v2.05Zm0-3.41h-6.833v-2.05H499.2v2.05Zm-6.833,8.2H499.2v2.05h-6.833v-2.05Zm8.2,0H507.4v2.05h-6.833v-2.05Zm6.833-1.37h-6.833v-2.05H507.4v2.05Zm-15.033-12.3H499.2v2.05h-6.833v-2.05Zm0,17.08H499.2v2.05h-6.833v-2.05Zm15.033,2.05h-6.833v-2.05H507.4v2.05Zm9.567-36.21h4.783v1.36h-4.783v-1.36Zm-7.517,3.41h12.3v1.37h-12.3v-1.37Zm11.617,9.57h2.05v1.37h-2.05v-1.37Z" transform="translate(-477 -1517)"/>
</svg>
