<svg xmlns="http://www.w3.org/2000/svg" width="71" height="71" viewBox="0 0 71 71">
  <metadata><?xpacket begin="﻿" id="W5M0MpCehiHzreSzNTczkc9d"?>
<x:xmpmeta xmlns:x="adobe:ns:meta/" x:xmptk="Adobe XMP Core 5.6-c138 79.159824, 2016/09/14-01:09:01        ">
   <rdf:RDF xmlns:rdf="http://www.w3.org/1999/02/22-rdf-syntax-ns#">
      <rdf:Description rdf:about=""/>
   </rdf:RDF>
</x:xmpmeta>
                                                                                                    
                                                                                                    
                                                                                                    
                                                                                                    
                                                                                                    
                                                                                                    
                                                                                                    
                                                                                                    
                                                                                                    
                                                                                                    
                                                                                                    
                                                                                                    
                                                                                                    
                                                                                                    
                                                                                                    
                                                                                                    
                                                                                                    
                                                                                                    
                                                                                                    
                                                                                                    
                           
<?xpacket end="w"?></metadata>
<defs>
    <style>
      .cls-1 {
        fill: #fff;
        fill-rule: evenodd;
      }
    </style>
  </defs>
  <path class="cls-1" d="M799.5,1517a35.5,35.5,0,1,1-35.5,35.5A35.5,35.5,0,0,1,799.5,1517Zm3.358,50.8h4.33a0.805,0.805,0,0,0,0-1.61h-4.33A0.805,0.805,0,0,0,802.858,1567.8Zm-0.347-37.02H791.239a0.805,0.805,0,0,0,0,1.61h11.272A0.805,0.805,0,0,0,802.511,1530.78Zm-7.084,28.97h4.329a0.805,0.805,0,0,0,0-1.61h-4.329A0.805,0.805,0,0,0,795.427,1559.75Zm7.431,12.07h4.33a0.8,0.8,0,1,0,0-1.6h-4.33A0.8,0.8,0,1,0,802.858,1571.82Zm-3.775-37.04h-7.844a0.805,0.805,0,0,0,0,1.61h7.844A0.805,0.805,0,0,0,799.083,1534.78Zm-3.656,28.99h4.329a0.8,0.8,0,1,0,0-1.6h-4.329A0.8,0.8,0,1,0,795.427,1563.77Zm7.431,0h4.33a0.8,0.8,0,1,0,0-1.6h-4.33A0.8,0.8,0,1,0,802.858,1563.77Zm0-4.02h4.33a0.805,0.805,0,0,0,0-1.61h-4.33A0.805,0.805,0,0,0,802.858,1559.75Zm-14.927,0h4.33a0.805,0.805,0,0,0,0-1.61h-4.33A0.805,0.805,0,0,0,787.931,1559.75Zm18.615-15.89h-17.9a2.521,2.521,0,0,0-2.517,2.52v3.51a2.521,2.521,0,0,0,2.517,2.52h17.9a2.522,2.522,0,0,0,2.518-2.52v-3.51A2.522,2.522,0,0,0,806.546,1543.86Zm0.911,6.03a0.912,0.912,0,0,1-.911.91h-17.9a0.913,0.913,0,0,1-.911-0.91v-3.51a0.912,0.912,0,0,1,.911-0.91h17.9a0.912,0.912,0,0,1,.911.91v3.51h0Zm-3.067-3.94a0.8,0.8,0,0,0-.8.8v2.77a0.8,0.8,0,0,0,1.607,0v-2.77A0.8,0.8,0,0,0,804.39,1545.95Zm-3.355,0a0.8,0.8,0,0,0-.8.8v2.77a0.8,0.8,0,0,0,1.607,0v-2.77A0.8,0.8,0,0,0,801.035,1545.95Zm-5.608,21.85h4.329a0.805,0.805,0,0,0,0-1.61h-4.329A0.805,0.805,0,0,0,795.427,1567.8Zm24.539-30.86a3.9,3.9,0,0,0-2.892-1.24h-1.987a4.365,4.365,0,0,0-1.078-2.06,4.48,4.48,0,0,0-3.324-1.43h-2.508v-2.69a2.521,2.521,0,0,0-2.517-2.52H789.535a2.521,2.521,0,0,0-2.517,2.52v2.69H784.51a4.463,4.463,0,0,0-4.5,4.85l2.761,36.21a5.206,5.206,0,0,0,5.105,4.73h19.435a5.224,5.224,0,0,0,4.843-3.49h2.078a4.513,4.513,0,0,0,4.425-4.1l2.326-30.49A3.9,3.9,0,0,0,819.966,1536.94Zm-31.342-7.42a0.912,0.912,0,0,1,.911-0.91H805.66a0.913,0.913,0,0,1,.911.91v9.03H788.624v-9.03Zm-7.008,7.42a2.864,2.864,0,0,1,2.894-3.13h2.508v5.54a0.8,0.8,0,0,0,.8.81h19.553a0.8,0.8,0,0,0,.8-0.81v-5.54h2.508a2.864,2.864,0,0,1,2.894,3.13l-0.352,4.61H781.968Zm29.2,36.21a3.613,3.613,0,0,1-3.5,3.24H787.88a3.568,3.568,0,0,1-3.5-3.24l-1.372-17.99h29.184Zm-27.934-19.6-0.793-10.39H813.1l-0.792,10.39H782.883Zm36.5-13.75-2.325,30.49a2.909,2.909,0,0,1-2.823,2.61h-1.789l2.715-35.6h1.912A2.279,2.279,0,0,1,819.384,1539.8Zm-31.453,23.97h4.33a0.8,0.8,0,1,0,0-1.6h-4.33A0.8,0.8,0,1,0,787.931,1563.77Zm0,8.05h4.33a0.8,0.8,0,1,0,0-1.6h-4.33A0.8,0.8,0,1,0,787.931,1571.82Zm7.5,0h4.329a0.8,0.8,0,1,0,0-1.6h-4.329A0.8,0.8,0,1,0,795.427,1571.82Zm-7.5-4.02h4.33a0.805,0.805,0,0,0,0-1.61h-4.33A0.805,0.805,0,0,0,787.931,1567.8Z" transform="translate(-764 -1517)"/>
</svg>
